<?xml version="1.0" encoding="UTF-8"?>
<svg xmlns="http://www.w3.org/2000/svg"
    xmlns:xlink="http://www.w3.org/1999/xlink"
    version="1.1" baseProfile="full"
    width="10cm" height="10cm"
    viewBox="0 0 10 10">
    <title>Logo for TeamTrainer</title>
    <path d="M 1,1 L 7,1 L 7,3 L 5,3 L 5,8 L 3,8 L 3,3 L 1,3 Z" fill="#00FF37" stroke="#00000000" stroke-width="0" stroke-linejoin="round"/>
    <path d="M 3,3 L 9,3 L 9,5 L 7,5 L 7,9 L 5,9 L 5,5 L 3,5 Z" fill="#FF8C00" stroke="#00000000" stroke-width="0" stroke-linejoin="round"/>
    <polygon points="3,3 5,3 5,5 3,5" fill="#7519FF" />
    <path d="M 1,1 L 7,1 L 7,3 L 5,3 L 5,8 L 3,8 L 3,3 L 1,3 Z" fill="#00000000" stroke="#26803A" stroke-width="0.5" stroke-linejoin="round"/>
    <path d="M 3,3 L 9,3 L 9,5 L 7,5 L 7,9 L 5,9 L 5,5 L 3,5 Z" fill="#00000000" stroke="#805726" stroke-width="0.5" stroke-linejoin="round"/>
</svg>